HIERARCHY
ROOT Hips
{
	OFFSET 54.586498 -23.549816 94.078590
	CHANNELS 6 Xposition Yposition Zposition Xrotation Yrotation Zrotation
	JOINT spine
	{
		OFFSET 0.000000 -0.429888 7.475601
		CHANNELS 3 Xrotation Yrotation Zrotation
		JOINT spine1
		{
			OFFSET 0.000000 -0.000002 9.923012
			CHANNELS 3 Xrotation Yrotation Zrotation
			JOINT spine2
			{
				OFFSET 0.000000 0.000000 9.508041
				CHANNELS 3 Xrotation Yrotation Zrotation
				JOINT Neck
				{
					OFFSET 0.000000 -1.163843 24.411102
					CHANNELS 3 Xrotation Yrotation Zrotation
					JOINT Head
					{
						OFFSET 0.000000 -0.000002 7.375229
						CHANNELS 3 Xrotation Yrotation Zrotation
						End Site
						{
							OFFSET 0.000000 5.887407 17.852203
						}
					}
				}
				JOINT RightShoulder
				{
					OFFSET -4.003559 0.557467 10.267914
					CHANNELS 3 Xrotation Yrotation Zrotation
					JOINT RightArm
					{
						OFFSET 0.000000 -0.000002 13.467300
						CHANNELS 3 Xrotation Yrotation Zrotation
						JOINT RightArmRoll
						{
							OFFSET 0.000000 -0.000002 6.798584
							CHANNELS 3 Xrotation Yrotation Zrotation
							JOINT RightForeArm
							{
								OFFSET 0.000000 -0.000004 19.801804
								CHANNELS 3 Xrotation Yrotation Zrotation
								JOINT RightForeArmRoll
								{
									OFFSET 0.000000 0.000000 7.629044
									CHANNELS 3 Xrotation Yrotation Zrotation
									JOINT RightHand
									{
										OFFSET 0.000000 -0.000004 15.309799
										CHANNELS 3 Xrotation Yrotation Zrotation
										End Site
										{
											OFFSET 0.000000 0.000000 0.100006
										}
									}
								}
							}
						}
					}
				}
				JOINT LeftShoulder
				{
					OFFSET 4.003559 0.557467 10.267914
					CHANNELS 3 Xrotation Yrotation Zrotation
					JOINT LeftArm
					{
						OFFSET 0.000000 -0.000002 13.467300
						CHANNELS 3 Xrotation Yrotation Zrotation
						JOINT LeftArmRoll
						{
							OFFSET 0.000000 -0.000002 6.798569
							CHANNELS 3 Xrotation Yrotation Zrotation
							JOINT LeftForeArm
							{
								OFFSET 0.000000 -0.000004 19.801804
								CHANNELS 3 Xrotation Yrotation Zrotation
								JOINT LeftForeArmRoll
								{
									OFFSET 0.000000 0.000000 7.629044
									CHANNELS 3 Xrotation Yrotation Zrotation
									JOINT LeftHand
									{
										OFFSET 0.000000 -0.000004 15.309799
										CHANNELS 3 Xrotation Yrotation Zrotation
										End Site
										{
											OFFSET 0.000000 0.000000 0.100006
										}
									}
								}
							}
						}
					}
				}
			}
		}
	}
	JOINT RightUpLeg
	{
		OFFSET -6.626091 1.019270 -1.215042
		CHANNELS 3 Xrotation Yrotation Zrotation
		JOINT RightUpLegRoll
		{
			OFFSET 0.000000 -0.000002 17.951698
			CHANNELS 3 Xrotation Yrotation Zrotation
			JOINT RightLeg
			{
				OFFSET 0.000000 0.000002 -22.230400
				CHANNELS 3 Xrotation Yrotation Zrotation
				JOINT RightLegRoll
				{
					OFFSET 0.000000 -0.000002 22.303200
					CHANNELS 3 Xrotation Yrotation Zrotation
					JOINT RightFoot
					{
						OFFSET 0.000000 -0.000004 18.563599
						CHANNELS 3 Xrotation Yrotation Zrotation
						JOINT RightToeBase
						{
							OFFSET 0.000000 -0.000002 15.518295
							CHANNELS 3 Xrotation Yrotation Zrotation
							End Site
							{
								OFFSET 0.006577 0.866261 7.515381
							}
						}
					}
				}
			}
		}
	}
	JOINT LeftUpLeg
	{
		OFFSET 6.626091 1.019270 -1.215042
		CHANNELS 3 Xrotation Yrotation Zrotation
		JOINT LeftUpLegRoll
		{
			OFFSET 0.000000 -0.000002 17.951797
			CHANNELS 3 Xrotation Yrotation Zrotation
			JOINT LeftLeg
			{
				OFFSET 0.000000 -0.000004 22.230309
				CHANNELS 3 Xrotation Yrotation Zrotation
				JOINT LeftLegRoll
				{
					OFFSET 0.000000 -0.000004 22.509308
					CHANNELS 3 Xrotation Yrotation Zrotation
					JOINT LeftFoot
					{
						OFFSET 0.000000 -0.000004 18.357498
						CHANNELS 3 Xrotation Yrotation Zrotation
						JOINT LeftToeBase
						{
							OFFSET 0.000000 -0.000002 15.518295
							CHANNELS 3 Xrotation Yrotation Zrotation
							End Site
							{
								OFFSET -0.029476 0.866261 7.515381
							}
						}
					}
				}
			}
		}
	}
}
MOTION
Frames: 11
Frame Time: 0.041667
54.268795 -7.046276 87.465820 8.949562 2.161759 2.979309 0.193603 0.660456 -0.153144 4.392060 1.309335 -0.316535 6.037302 1.305402 -0.332197 -24.215874 -0.926605 -1.555597 17.789573 -5.100352 0.141715 -10.112577 -73.364435 -12.726899 108.809428 -55.622793 123.805197 0.000000 0.000000 -0.000003 0.058260 -7.758618 -1.512855 0.000005 -0.000008 -3.112390 -5.000241 -7.998881 0.000135 -20.725898 65.668178 24.417262 114.466034 60.719255 -131.119893 -0.000004 -0.000016 0.000025 3.721793 3.794944 0.721619 -0.000000 -0.000005 3.007390 -5.000157 8.000008 -0.000012 -38.154564 -184.914217 -2.289230 179.999964 0.000005 -1.136007 138.154810 -0.972224 -2.057560 -0.000007 -0.000000 0.824330 70.917362 7.298253 0.894532 31.425239 -7.421534 -0.255050 141.334372 0.327951 181.500516 0.000010 -0.000004 -1.016920 -38.807892 2.115448 2.166385 -0.000001 0.000005 -0.754660 70.323771 -7.757130 0.290898 29.175863 7.333652 -0.572277 
54.288101 -7.177383 87.598816 8.845372 2.142572 2.980559 0.171498 0.662005 -0.155799 4.347891 1.311127 -0.322853 5.993137 1.307129 -0.338537 -23.988128 -0.853549 -1.520464 17.803592 -5.154194 0.162515 -10.122461 -73.338815 -12.736459 108.942071 -55.730474 123.867147 -0.000000 0.000000 -0.000002 0.058777 -7.816458 -1.508758 0.000005 -0.000008 -3.112310 -5.000244 -7.998881 0.000136 -20.742106 65.705949 24.435253 114.546610 60.889381 -131.214081 -0.000004 -0.000016 0.000029 3.771714 3.824774 0.719428 -0.000000 -0.000006 3.007388 -5.000156 8.000008 -0.000011 -37.758116 -184.871596 -2.324032 179.999964 0.000005 -1.128998 138.509488 -0.979859 -2.041520 -0.000007 -0.000000 0.808466 70.814343 7.258369 1.012020 31.367859 -7.431493 -0.361474 141.796476 0.330833 181.521880 0.000012 -0.000004 -1.015420 -38.304804 2.161911 2.150901 -0.000002 0.000005 -0.742194 70.217364 -7.765999 0.299614 29.132150 7.334362 -0.562029 
54.296902 -7.307203 87.728798 8.741135 2.123218 2.981842 0.149430 0.663521 -0.158139 4.303793 1.313038 -0.328458 5.949040 1.308985 -0.344163 -23.759050 -0.781480 -1.486992 17.813772 -5.207328 0.181953 -10.134722 -73.314308 -12.748635 109.071619 -55.841496 123.927294 0.000000 -0.000001 -0.000002 0.059289 -7.873699 -1.504190 0.000006 -0.000008 -3.112130 -5.000241 -7.998881 0.000136 -20.756499 65.740332 24.451206 114.635450 61.056885 -131.316957 -0.000003 -0.000016 0.000026 3.820250 3.853246 0.717244 0.000000 -0.000005 3.007390 -5.000156 8.000008 -0.000011 -37.363843 -184.829495 -2.356578 179.999964 0.000005 -1.123000 138.859563 -0.987380 -2.026476 -0.000007 -0.000000 0.793227 70.718754 7.220450 1.122590 31.298457 -7.440431 -0.462266 142.253771 0.333701 181.543778 0.000009 -0.000004 -1.013760 -37.811050 2.206161 2.134777 -0.000001 0.000005 -0.729752 70.111742 -7.772012 0.300469 29.086337 7.335475 -0.545106 
54.308701 -7.436424 87.860710 8.636745 2.103699 2.983263 0.127474 0.664982 -0.160065 4.259913 1.315088 -0.333133 5.905153 1.310989 -0.348864 -23.528719 -0.710957 -1.455666 17.819516 -5.259167 0.199487 -10.150329 -73.290737 -12.764517 109.199377 -55.955369 123.987236 -0.000001 0.000000 -0.000004 0.059795 -7.930258 -1.499120 0.000005 -0.000008 -3.111839 -5.000242 -7.998881 0.000135 -20.768358 65.770364 24.464329 114.735621 61.220570 -131.431554 -0.000003 -0.000016 0.000026 3.866848 3.880035 0.715091 -0.000000 -0.000005 3.007389 -5.000155 8.000008 -0.000011 -36.971643 -184.786301 -2.388288 179.999964 0.000005 -1.117004 139.204528 -0.995590 -2.011136 -0.000007 -0.000000 0.778750 70.631970 7.185140 1.224576 31.215921 -7.448088 -0.555670 142.705465 0.335725 181.566044 0.000009 -0.000004 -1.011910 -37.328609 2.247679 2.118033 -0.000002 0.000005 -0.717339 70.007649 -7.774456 0.291745 29.038139 7.337058 -0.520520 
54.317596 -7.566596 87.986519 8.532075 2.084015 2.984943 0.105712 0.666369 -0.161486 4.216407 1.317256 -0.336665 5.861645 1.313121 -0.352422 -23.297345 -0.642546 -1.426951 17.819895 -5.309133 0.214564 -10.170276 -73.267965 -12.785175 109.325306 -56.072093 124.047396 -0.000001 -0.000000 -0.000003 0.060304 -7.986059 -1.493513 0.000004 -0.000008 -3.111420 -5.000243 -7.998881 0.000135 -20.776857 65.794912 24.473678 114.846831 61.379939 -131.557025 -0.000003 -0.000017 0.000024 3.910945 3.904812 0.712996 0.000001 -0.000006 3.007390 -5.000156 8.000008 -0.000012 -36.581452 -184.742916 -2.418724 179.999964 0.000005 -1.112004 139.543797 -1.003708 -1.995814 -0.000007 -0.000000 0.765162 70.555335 7.153211 1.316036 31.119093 -7.454249 -0.639904 143.150779 0.336905 181.589171 0.000009 -0.000004 -1.009830 -36.859679 2.285939 2.100714 -0.000002 0.000006 -0.704956 69.905361 -7.772932 0.272350 28.987442 7.339133 -0.487292 
54.333298 -7.686272 88.107811 8.427008 2.064166 2.986997 0.084215 0.667660 -0.162308 4.173418 1.319553 -0.338838 5.818668 1.315400 -0.354622 -23.064938 -0.576818 -1.401311 17.814387 -5.356627 0.226644 -10.195753 -73.246033 -12.811881 109.449560 -56.191867 124.107788 0.000001 0.000000 -0.000002 0.060804 -8.040997 -1.487325 0.000005 -0.000008 -3.110850 -5.000242 -7.998881 0.000136 -20.781312 65.813032 24.478503 114.975457 61.532846 -131.700076 -0.000003 -0.000016 0.000026 3.951976 3.927268 0.710991 -0.000000 -0.000006 3.007387 -5.000155 8.000008 -0.000013 -36.193439 -184.700104 -2.447455 179.999964 0.000005 -1.107005 139.876769 -1.011723 -1.980550 -0.000006 -0.000000 0.752592 70.490155 7.125403 1.395133 31.006740 -7.458699 -0.713220 143.588977 0.338016 181.614266 0.000007 -0.000005 -1.007510 -36.406336 2.320413 2.082876 -0.000002 0.000005 -0.692608 69.805606 -7.766759 0.240965 28.933849 7.341747 -0.444400 
54.343300 -7.818694 88.232216 8.322283 2.043754 2.989565 0.062656 0.668926 -0.162554 4.130313 1.322129 -0.339754 5.775554 1.317967 -0.355570 -22.830461 -0.511376 -1.378139 17.802890 -5.405067 0.236254 -10.226683 -73.223917 -12.844550 109.574888 -56.316112 124.171528 -0.000001 0.000000 -0.000003 0.061308 -8.095066 -1.480438 0.000005 -0.000008 -3.110120 -5.000242 -7.998881 0.000136 -20.781518 65.826597 24.478551 115.114369 61.682216 -131.852690 -0.000004 -0.000017 0.000025 3.990708 3.948244 0.709020 0.000000 -0.000005 3.007390 -5.000157 8.000008 -0.000013 -35.808889 -184.656254 -2.474272 179.999964 0.000005 -1.102005 140.201818 -1.021151 -1.965630 -0.000007 -0.000000 0.740950 70.436169 7.100881 1.464350 30.875682 -7.461867 -0.781090 144.019989 0.337458 181.639961 0.000008 -0.000004 -1.004900 -35.965908 2.351638 2.064660 -0.000001 0.000006 -0.680213 69.706090 -7.755735 0.196979 28.877794 7.345110 -0.387619 
54.357601 -7.948168 88.353813 8.218579 2.022477 2.992612 0.040707 0.670243 -0.162349 4.086416 1.325073 -0.339735 5.731661 1.320925 -0.355588 -22.592818 -0.443823 -1.356499 17.786603 -5.457595 0.244444 -10.261978 -73.201077 -12.881955 109.702346 -56.446131 124.239707 -0.000001 -0.000001 -0.000004 0.061826 -8.148317 -1.472767 0.000005 -0.000008 -3.109211 -5.000243 -7.998881 0.000136 -20.778071 65.837990 24.474446 115.261614 61.830014 -132.013350 -0.000003 -0.000016 0.000027 4.028367 3.968772 0.707021 0.000001 -0.000006 3.007389 -5.000155 8.000008 -0.000011 -35.428871 -184.610478 -2.498520 179.999964 0.000005 -1.098002 140.518670 -1.030468 -1.950793 -0.000007 -0.000000 0.730025 70.391417 7.078431 1.527413 30.724749 -7.464289 -0.849572 144.444813 0.335202 181.665601 0.000009 -0.000004 -1.002020 -35.534308 2.380610 2.046225 -0.000002 0.000005 -0.667708 69.604716 -7.740185 0.141196 28.819666 7.349295 -0.314962 
54.368500 -8.076963 88.472717 8.115689 2.000495 2.996010 0.018441 0.671595 -0.161754 4.041878 1.328349 -0.338897 5.687124 1.324212 -0.354790 -22.352299 -0.374742 -1.336291 17.765805 -5.513304 0.251345 -10.300811 -73.177841 -12.923225 109.831341 -56.581079 124.311560 -0.000001 -0.000001 -0.000004 0.062351 -8.200846 -1.464396 0.000005 -0.000008 -3.108159 -5.000242 -7.998881 0.000136 -20.771421 65.847094 24.466730 115.415758 61.976727 -132.180471 -0.000003 -0.000017 0.000028 4.065054 3.988723 0.705005 0.000000 -0.000005 3.007391 -5.000157 8.000008 -0.000010 -35.052787 -184.562845 -2.520608 179.999964 0.000005 -1.094000 140.828296 -1.040464 -1.936638 -0.000007 -0.000000 0.719751 70.355060 7.057878 1.584958 30.556146 -7.465866 -0.917767 144.864037 0.332853 181.692102 0.000011 -0.000004 -0.998878 -35.111045 2.407476 2.027616 -0.000003 0.000005 -0.655123 69.501867 -7.720573 0.075073 28.759461 7.354109 -0.228852 
54.377800 -8.210193 88.590912 8.013402 1.977957 2.999604 -0.004066 0.672970 -0.160828 3.996862 1.331874 -0.337357 5.642099 1.327759 -0.353291 -22.109234 -0.304710 -1.317407 17.740972 -5.571264 0.257116 -10.342395 -73.154864 -12.967520 109.962958 -56.720073 124.388222 -0.000001 -0.000001 -0.000005 0.062883 -8.252707 -1.455416 0.000005 -0.000008 -3.106970 -5.000243 -7.998881 0.000135 -20.762312 65.854027 24.456230 115.578494 62.121800 -132.356471 -0.000003 -0.000016 0.000027 4.100859 4.008006 0.702988 0.000000 -0.000005 3.007389 -5.000156 8.000008 -0.000007 -34.680067 -184.514186 -2.540397 179.999964 0.000005 -1.089998 141.131816 -1.051960 -1.922758 -0.000007 -0.000000 0.710071 70.326421 7.039132 1.637015 30.372219 -7.466568 -0.984744 145.278260 0.329598 181.718604 0.000012 -0.000004 -0.995529 -34.695431 2.432406 2.008878 -0.000001 0.000005 -0.642490 69.397994 -7.697376 -0.000030 28.697173 7.359380 -0.131691 
54.384399 -8.336951 88.704323 7.911511 1.955023 3.003254 -0.026744 0.674352 -0.159630 3.951495 1.335598 -0.335230 5.596746 1.331494 -0.351209 -21.864091 -0.234311 -1.299732 17.712774 -5.630538 0.261924 -10.385793 -73.132277 -13.013835 110.093640 -56.862868 124.465513 -0.000001 0.000000 -0.000003 0.063415 -8.303995 -1.445892 0.000006 -0.000008 -3.105680 -5.000241 -7.998882 0.000135 -20.751264 65.858733 24.443560 115.746394 62.266006 -132.537485 -0.000003 -0.000016 0.000027 4.135907 4.026501 0.700974 -0.000001 -0.000005 3.007392 -5.000155 8.000008 -0.000010 -34.310345 -184.464585 -2.558272 179.999964 0.000006 -1.085995 141.430022 -1.063381 -1.908877 -0.000006 -0.000000 0.700924 70.304373 7.022123 1.684248 30.175062 -7.466342 -1.049625 145.687880 0.325453 181.744831 0.000011 -0.000004 -0.992003 -34.287065 2.455571 1.990064 -0.000002 0.000005 -0.629836 69.293751 -7.670841 -0.083106 28.633068 7.364900 -0.025943 
